<svg width="1600" height="900" viewBox="0 0 1600 900" fill="none" xmlns="http://www.w3.org/2000/svg">
  <rect width="1600" height="900" fill="#F2E6D6"/>
  <rect x="80" y="88" width="1440" height="724" rx="52" fill="#F8F2EA"/>
  <rect x="168" y="160" width="640" height="220" rx="28" fill="#D98D66"/>
  <rect x="830" y="160" width="600" height="480" rx="28" fill="#C9B195"/>
  <rect x="168" y="418" width="580" height="120" rx="24" fill="#26453C"/>
  <rect x="168" y="566" width="420" height="168" rx="28" fill="#E3C3A5"/>
  <path d="M232 235H626" stroke="#FFF9F3" stroke-width="18" stroke-linecap="round"/>
  <path d="M232 285H542" stroke="#FFF9F3" stroke-width="18" stroke-linecap="round"/>
  <path d="M232 476H684" stroke="#F5EBDD" stroke-width="16" stroke-linecap="round"/>
  <path d="M232 628H510" stroke="#6F5645" stroke-width="16" stroke-linecap="round"/>
  <path d="M232 676H462" stroke="#6F5645" stroke-width="16" stroke-linecap="round"/>
  <circle cx="1148" cy="384" r="128" fill="#F8F2EA"/>
  <path d="M1116 342C1146 328 1184 335 1204 364" stroke="#B14E31" stroke-width="18" stroke-linecap="round"/>
  <path d="M1082 430C1134 454 1192 446 1232 404" stroke="#B14E31" stroke-width="18" stroke-linecap="round"/>
</svg>
