<svg width="1600" height="900" viewBox="0 0 1600 900" fill="none" xmlns="http://www.w3.org/2000/svg">
  <rect width="1600" height="900" fill="#EFE4D5"/>
  <rect x="112" y="112" width="1376" height="676" rx="46" fill="#F8F4ED"/>
  <rect x="186" y="184" width="1228" height="502" rx="26" fill="#D3C1AB"/>
  <rect x="246" y="246" width="296" height="164" rx="22" fill="#27453B"/>
  <rect x="576" y="246" width="392" height="164" rx="22" fill="#E3B087"/>
  <rect x="1002" y="246" width="350" height="164" rx="22" fill="#B55131"/>
  <rect x="246" y="446" width="470" height="178" rx="22" fill="#F8F4ED"/>
  <rect x="752" y="446" width="600" height="178" rx="22" fill="#F8F4ED"/>
  <path d="M310 302H480" stroke="#F5EBDD" stroke-width="18" stroke-linecap="round"/>
  <path d="M634 302H908" stroke="#7D6450" stroke-width="18" stroke-linecap="round"/>
  <path d="M1062 302H1244" stroke="#FDEEE4" stroke-width="18" stroke-linecap="round"/>
  <path d="M312 502H634" stroke="#7D6450" stroke-width="16" stroke-linecap="round"/>
  <path d="M312 548H580" stroke="#7D6450" stroke-width="16" stroke-linecap="round"/>
  <path d="M818 502H1288" stroke="#7D6450" stroke-width="16" stroke-linecap="round"/>
  <path d="M818 548H1160" stroke="#7D6450" stroke-width="16" stroke-linecap="round"/>
</svg>
